<svg width="24" height="24" viewBox="0 0 24 24" fill="none" xmlns="http://www.w3.org/2000/svg">
<path d="M19.9579 11.3762L6.28852 11.2547L11.9483 5.855C12.0586 5.76558 12.1496 5.65459 12.2155 5.52882C12.2815 5.40304 12.3211 5.26513 12.3319 5.12352C12.3428 4.98191 12.3246 4.83958 12.2785 4.70524C12.2324 4.5709 12.1594 4.44738 12.064 4.34223C11.9685 4.23707 11.8526 4.15251 11.7233 4.0937C11.594 4.03489 11.4541 4.00308 11.3121 4.00021C11.1701 3.99734 11.029 4.02348 10.8975 4.07702C10.7659 4.13056 10.6467 4.21037 10.5471 4.31159L3.54187 10.9928C3.37012 11.164 3.23384 11.3673 3.14085 11.5913C3.04787 11.8152 3 12.0553 3 12.2977C3 12.5402 3.04787 12.7803 3.14085 13.0042C3.23384 13.2282 3.37012 13.4315 3.54187 13.6027L10.5102 20.2371C10.7069 20.4322 10.973 20.5412 11.25 20.5401C11.5271 20.539 11.7923 20.4279 11.9874 20.2313C12.1826 20.0346 12.2916 19.7684 12.2905 19.4914C12.2894 19.2144 12.1783 18.9491 11.9816 18.754L6.27682 13.3417L19.9561 13.4605C20.2329 13.4605 20.4985 13.3505 20.6942 13.1547C20.89 12.9589 21 12.6934 21 12.4165C21 12.1397 20.89 11.8741 20.6942 11.6784C20.4985 11.4826 20.2329 11.3726 19.9561 11.3726L19.9579 11.3762Z" fill="#2E2F33"/>
</svg>
